<svg width="20" height="20" viewBox="0 0 20 20" fill="none" xmlns="http://www.w3.org/2000/svg">
<path d="M14.1667 6.66663V5.83329C14.1667 3.53579 12.2975 1.66663 9.99999 1.66663C7.70249 1.66663 5.83333 3.53579 5.83333 5.83329V8.33329H4.99999C4.08083 8.33329 3.33333 9.08079 3.33333 9.99996V16.6666C3.33333 17.5858 4.08083 18.3333 4.99999 18.3333H15C15.9192 18.3333 16.6667 17.5858 16.6667 16.6666V9.99996C16.6667 9.08079 15.9192 8.33329 15 8.33329H7.49999V5.83329C7.49999 4.45496 8.62166 3.33329 9.99999 3.33329C11.3783 3.33329 12.5 4.45496 12.5 5.83329V6.66663H14.1667Z" fill="white"/>
</svg>
